<svg aria-hidden="true" style="position:absolute;width:0;height:0;overflow:hidden" xmlns="http://www.w3.org/2000/svg"><defs><symbol id="icon-Logo-5" viewBox="0 0 56 32"><path d="m19.934 4.046 3.676 3.48-6.824-.004v16.885h17.836v-6.456l3.672 3.476V4.045H19.933zm14.528 13.497L24.038 7.675h10.424v9.868zm-3.237 4.395H19.609V10.582h.821v10.587h10.795v.769zm-8.873 4.718-.429.884-.429-.884h-.36l.626 1.178v.686h.325v-.686l.625-1.178h-.359zm.539 1.864.151-.434h.722l.152.434h.338l-.706-1.865h-.291l-.704 1.865h.337zm.513-1.469.27.774h-.541l.27-.774zm1.708.729a.424.424 0 0 0-.07.237c0 .157.055.285.165.383s.259.146.443.146.343-.05.476-.15l.105.124h.361l-.274-.324c.108-.147.161-.335.161-.565h-.27c0 .126-.026.24-.078.342l-.36-.425.127-.092c.09-.065.154-.13.193-.195a.411.411 0 0 0-.072-.511.471.471 0 0 0-.333-.12c-.15 0-.27.043-.359.128s-.133.2-.133.346c0 .06.014.122.042.186s.08.142.152.233a1.115 1.115 0 0 0-.278.257zm.842.412a.476.476 0 0 1-.295.105c-.093 0-.167-.027-.223-.081s-.083-.124-.083-.21c0-.1.051-.189.154-.266l.04-.028.407.48zm-.335-.826c-.088-.108-.132-.198-.132-.27 0-.062.018-.114.054-.155s.084-.061.145-.061c.056 0 .103.018.14.052s.055.076.055.124a.231.231 0 0 1-.079.181l-.04.032-.142.097zm3.036 1.014a.672.672 0 0 0 .22-.466h-.323c-.017.133-.058.228-.122.286s-.16.086-.287.086c-.139 0-.245-.053-.318-.159s-.108-.26-.108-.461v-.165c.002-.199.04-.35.115-.452s.184-.155.325-.155c.121 0 .213.03.275.09s.102.155.118.289h.323c-.02-.204-.094-.362-.219-.474s-.291-.168-.497-.168a.708.708 0 0 0-.673.419 1.097 1.097 0 0 0-.093.465v.174c.003.172.035.322.096.452s.149.23.261.301c.114.07.245.105.393.105.213 0 .383-.055.511-.166zm1.904-.262c.063-.138.095-.299.095-.482v-.104c-.001-.182-.033-.341-.097-.478s-.155-.243-.273-.315c-.117-.073-.251-.11-.403-.11s-.287.037-.405.111c-.117.073-.208.18-.273.319s-.096.3-.096.482v.105c.001.178.033.336.097.473s.156.242.274.316a.76.76 0 0 0 .405.11c.153 0 .288-.037.405-.11s.208-.18.272-.318zm-.347-1.054c.079.11.118.268.118.475v.097c0 .21-.039.37-.117.479s-.187.164-.33.164c-.142 0-.253-.056-.333-.168s-.119-.27-.119-.475v-.108c.002-.201.042-.356.12-.465s.189-.165.329-.165c.143 0 .254.055.332.165z"/></symbol><symbol id="icon-Logo-4" viewBox="0 0 56 32"><path d="M26.289 3.487h-.072c-.11-.007-.22-.009-.33-.012h-.239c-.208 0-.421.005-.632.016a.384.384 0 0 0-.048 0 14.832 14.832 0 0 0-5.517 1.407l-.227.109v11.615l.531-.18c.466-.16.962-.304 1.476-.438a18.007 18.007 0 0 1 4.247-.564v1.526c-.19.001-.374.007-.559.016h-.044a16.936 16.936 0 0 0-3.267.502 16.559 16.559 0 0 0-3.892 1.517V4.104a15.6 15.6 0 0 1 4.083-1.661 15.622 15.622 0 0 1 3.849-.496h.224c.268.007.53.019.775.037a11.12 11.12 0 0 1 1.918.305v1.502a11.89 11.89 0 0 0-1.858-.28l-.038-.003a4.592 4.592 0 0 0-.38-.022zm2.644 1.536c.333.025.678.037 1.027.037a16.485 16.485 0 0 0 4.046-.519 16.703 16.703 0 0 0 3.891-1.518v14.631a15.648 15.648 0 0 1-4.085 1.661c-1.258.323-2.55.49-3.849.495a11.779 11.779 0 0 1-2.92-.344V4.74a12.161 12.161 0 0 0 1.888.283zm7.446.113-.531.179c-.488.164-.981.311-1.476.442-1.441.37-2.922.56-4.41.566-.346 0-.665-.009-.973-.029l-.423-.028v11.948l.364.032c.337.029.685.044 1.035.044a14.086 14.086 0 0 0 3.473-.45 14.572 14.572 0 0 0 2.714-.975l.227-.109V5.137zM18.747 24.092a.776.776 0 0 0-.591-.238.865.865 0 0 0-.341.064.768.768 0 0 0-.436.442.865.865 0 0 0-.061.329v1.99c-.005.14.022.28.078.408a.805.805 0 0 0 .199.267c.08.067.173.115.273.141.097.027.197.041.297.041a.841.841 0 0 0 .824-.837v-.223h-.52v.177a.444.444 0 0 1-.031.177.318.318 0 0 1-.076.112.367.367 0 0 1-.218.076.267.267 0 0 1-.244-.106.473.473 0 0 1-.069-.267v-1.856a.634.634 0 0 1 .064-.297.264.264 0 0 1 .255-.12.279.279 0 0 1 .232.112.42.42 0 0 1 .086.267v.172h.515v-.203a.942.942 0 0 0-.064-.348.814.814 0 0 0-.174-.28zM21.838 24.069a.93.93 0 0 0-.592-.219.895.895 0 0 0-.586.219.823.823 0 0 0-.202.279.947.947 0 0 0-.076.386v1.909a.907.907 0 0 0 .076.391.769.769 0 0 0 .202.267c.08.074.173.131.275.168a.891.891 0 0 0 .903-.168.8.8 0 0 0 .196-.267.937.937 0 0 0 .076-.391v-1.909a.918.918 0 0 0-.076-.386.865.865 0 0 0-.196-.279zm-.243 2.574a.349.349 0 0 1-.104.276.379.379 0 0 1-.49 0 .349.349 0 0 1-.104-.276v-1.909a.349.349 0 0 1 .104-.276.379.379 0 0 1 .49 0 .349.349 0 0 1 .104.276v1.909zM25.898 27.495v-3.614h-.5l-.657 1.913h-.009l-.662-1.913h-.495v3.614h.516v-2.198h.009l.506 1.554h.257l.51-1.554h.009v2.198h.516zM28.83 24.135a.718.718 0 0 0-.292-.197 1.158 1.158 0 0 0-.374-.056h-.767v3.614h.515v-1.411h.265a.941.941 0 0 0 .464-.099.848.848 0 0 0 .401-.591c.02-.136.03-.273.028-.411a2.078 2.078 0 0 0-.05-.516.768.768 0 0 0-.19-.332zm-.265 1.102a.455.455 0 0 1-.048.188.287.287 0 0 1-.133.127.519.519 0 0 1-.243.045h-.235v-1.229h.265c.08-.004.16.012.232.045a.294.294 0 0 1 .121.133.516.516 0 0 1 .045.201v.24c0 .084.005.171 0 .248h-.005zM31.27 23.881h-.422l-.796 3.614h.515l.151-.776h.702l.151.776h.515l-.816-3.614zm-.476 2.345.253-1.31h.009l.252 1.31h-.515zM34.597 26.058h-.009l-.778-2.177h-.495v3.614h.515v-2.173h.011l.787 2.173h.484v-3.614h-.515v2.177zM37.743 23.881l-.414 1.437h-.011l-.414-1.437h-.545l.707 2.086v1.527h.515v-1.527l.707-2.086h-.545zM17.311 28.515h.248v.696h.169v-.696h.247v-.143h-.664v.143zM19.398 28.373l-.325.839h.179l.069-.191h.334l.072.191h.183l-.333-.839h-.179zm-.027.507.114-.311.114.311h-.228zM21.46 28.902h.194v.108a.329.329 0 0 1-.199.071.21.21 0 0 1-.178-.08.355.355 0 0 1-.062-.219c0-.187.081-.28.242-.28.042-.004.085.007.119.031s.06.061.07.102l.166-.032c-.036-.164-.154-.247-.356-.247a.421.421 0 0 0-.293.108.416.416 0 0 0-.121.323.454.454 0 0 0 .108.315.408.408 0 0 0 .319.122.505.505 0 0 0 .356-.133v-.331h-.364v.141zM23.566 28.373h-.17v.839h.588v-.143h-.418v-.696zM25.347 28.373h-.17v.839h.17v-.839zM27.088 28.933l-.344-.56h-.165v.839h.158v-.548l.337.548h.169v-.839h-.155v.56zM28.662 28.842h.418v-.143h-.418v-.184h.45v-.143h-.62v.839h.637v-.143h-.467v-.227zM32.479 28.704h-.33v-.331h-.169v.839h.169v-.367h.33v.367h.169v-.839h-.169v.331zM34.062 28.842h.419v-.143h-.419v-.184h.451v-.143h-.62v.839h.636v-.143h-.467v-.227zM36.209 28.842c.146-.023.22-.1.22-.233a.2.2 0 0 0-.083-.187.474.474 0 0 0-.245-.049h-.356v.839h.169v-.351h.033a.223.223 0 0 1 .105.019.175.175 0 0 1 .06.061l.183.267h.202l-.102-.164a.578.578 0 0 0-.186-.201zm-.17-.116h-.125v-.211h.133a.43.43 0 0 1 .171.02c.012.011.022.024.028.039s.009.031.009.048c-.001.016-.005.032-.013.047s-.019.027-.032.037a.47.47 0 0 1-.171.02zM37.828 28.842h.418v-.143h-.418v-.184h.451v-.143h-.621v.839h.637v-.143h-.467v-.227z"/></symbol><symbol id="icon-Logo-3" viewBox="0 0 57 32"><path d="M19.417 26.187c.008 0 .017.002.025.005s.015.007.02.013l.116.111a.955.955 0 0 1-.327.211 1.299 1.299 0 0 1-.464.076 1.213 1.213 0 0 1-.436-.071.942.942 0 0 1-.329-.2.878.878 0 0 1-.212-.308 1.02 1.02 0 0 1-.074-.396.91.91 0 0 1 .305-.705 1.06 1.06 0 0 1 .349-.201c.143-.048.296-.072.449-.071.143-.003.285.019.417.064.115.043.221.104.313.178l-.097.119a.085.085 0 0 1-.025.021.065.065 0 0 1-.039.009.086.086 0 0 1-.042-.013l-.052-.032-.073-.04a.818.818 0 0 0-.229-.071 1.11 1.11 0 0 0-.173-.013.952.952 0 0 0-.323.053.683.683 0 0 0-.417.387.81.81 0 0 0-.06.313.795.795 0 0 0 .06.318.68.68 0 0 0 .402.383.867.867 0 0 0 .3.05c.059.001.119-.003.177-.01a.69.69 0 0 0 .384-.163.09.09 0 0 1 .055-.02zM22.776 25.629a.959.959 0 0 1-.079.393c-.047.114-.122.218-.219.305s-.214.155-.344.2a1.42 1.42 0 0 1-.884 0 1.027 1.027 0 0 1-.342-.201.904.904 0 0 1-.221-.308 1.022 1.022 0 0 1 0-.787.94.94 0 0 1 .221-.31c.097-.084.214-.15.342-.193.284-.096.6-.096.884 0 .129.046.246.114.343.201a.914.914 0 0 1 .299.699zm-.306 0a.84.84 0 0 0-.055-.316.653.653 0 0 0-.402-.385 1.025 1.025 0 0 0-.643 0 .683.683 0 0 0-.246.149.63.63 0 0 0-.157.236.927.927 0 0 0 0 .632.643.643 0 0 0 .403.384c.207.067.436.067.643 0a.689.689 0 0 0 .246-.148.662.662 0 0 0 .156-.236.82.82 0 0 0 .055-.316zM25.067 25.96l.031.071.033-.071a.68.68 0 0 1 .038-.07l.743-1.174c.015-.02.028-.033.042-.037a.207.207 0 0 1 .061-.006h.22v1.909h-.26V25.119a.726.726 0 0 1 0-.066l-.747 1.19c-.009.018-.025.033-.044.043s-.041.016-.064.016h-.042c-.023 0-.045-.005-.064-.016s-.034-.026-.044-.044l-.769-1.198v1.533h-.252v-1.905h.22a.207.207 0 0 1 .061.006.087.087 0 0 1 .041.037l.759 1.175a.418.418 0 0 1 .038.068zM27.864 25.865v.715h-.291v-1.906h.649c.122-.002.245.012.362.042a.724.724 0 0 1 .256.119.492.492 0 0 1 .145.187.576.576 0 0 1 .049.244.54.54 0 0 1-.211.435.752.752 0 0 1-.257.126 1.25 1.25 0 0 1-.35.044l-.352-.005zm0-.205h.352a.808.808 0 0 0 .225-.029.51.51 0 0 0 .163-.082.358.358 0 0 0 .134-.286c.003-.053-.007-.106-.029-.155s-.057-.094-.102-.13a.624.624 0 0 0-.391-.102h-.352v.786zM31.772 26.583h-.23a.109.109 0 0 1-.064-.018.133.133 0 0 1-.038-.044l-.198-.461h-.993l-.205.461a.107.107 0 0 1-.101.062h-.23l.872-1.909h.302l.884 1.909zm-1.439-.709h.82l-.346-.777a1.276 1.276 0 0 1-.065-.179l-.033.1a.98.98 0 0 1-.032.081l-.343.776zM33.029 24.682c.017.008.032.02.044.034l1.272 1.439V24.673h.26v1.909h-.145a.136.136 0 0 1-.06-.011.165.165 0 0 1-.047-.035l-1.271-1.438a.726.726 0 0 1 0 .066v1.419h-.26v-1.909h.154a.15.15 0 0 1 .052.009zM36.748 25.823v.758h-.291v-.758l-.804-1.15h.26a.114.114 0 0 1 .063.016.159.159 0 0 1 .039.043l.503.742a.717.717 0 0 1 .088.169l.038-.082a.745.745 0 0 1 .049-.087l.496-.747a.18.18 0 0 1 .038-.04.098.098 0 0 1 .063-.019h.263l-.806 1.155zM24.923 21.47c.127.014.254.025.384.035 1.962-.763 3.622-2.011 4.772-3.588s1.74-3.415 1.695-5.282l-2.162-1.879c.44 1.988.234 4.043-.594 5.935s-2.246 3.547-4.094 4.779z"/><path d="m24.151 21.383.058.01c1.975-1.228 3.481-2.942 4.323-4.921s.981-4.133.399-6.181l-3.08-2.676c1.246 2.2 1.747 4.661 1.446 7.098s-1.393 4.75-3.147 6.67zM34.596 14.841c-.523 2.052-1.794 3.902-3.624 5.276-.534.404-1.111.763-1.722 1.074 1.49-.38 2.859-1.053 4.003-1.966s2.03-2.042 2.592-3.3l-1.249-1.084z"/><path d="m34.106 14.539-1.778-1.545c-.034 1.762-.61 3.483-1.669 4.986s-2.562 2.731-4.352 3.559h.009c.399 0 .798-.021 1.194-.062 1.673-.593 3.151-1.537 4.303-2.748s1.94-2.65 2.295-4.189zM24.409 6.486 22.287 4.64c-1.897.637-3.528 1.756-4.68 3.212s-1.772 3.179-1.778 4.946c.007 1.952.763 3.846 2.149 5.383s3.322 2.628 5.501 3.101c1.946-2.06 3.085-4.605 3.252-7.266s-.647-5.299-2.323-7.53zM39.008 14.255c-.008-2.316-1.07-4.535-2.955-6.173s-4.439-2.561-7.105-2.567a11.3 11.3 0 0 0-3.602.582l12.99 11.286a7.647 7.647 0 0 0 .672-3.128z"/></symbol><symbol id="icon-Logo-2" viewBox="0 0 57 32"><path d="M12.878 11.255h-.002c-1.279 0-2.316.921-2.316 2.058v.001c0 1.137 1.037 2.058 2.316 2.058h.002c1.279 0 2.316-.921 2.316-2.058v-.001c0-1.137-1.037-2.058-2.316-2.058zM29.971 10.597c-.004-1.579-.711-3.092-1.967-4.208s-2.958-1.745-4.735-1.749c-1.777.003-3.48.631-4.737 1.748s-1.964 2.63-1.968 4.209v8.706s13.405-1.327 13.406-8.704v-.001zM5.867 22.16c.003 1.098.496 2.151 1.369 2.928s2.058 1.215 3.294 1.218c1.236-.003 2.42-.441 3.294-1.218s1.366-1.829 1.37-2.927v-6.057s-9.327.924-9.327 6.056zm4.663 1.085c-.242 0-.478-.064-.678-.183s-.357-.289-.45-.487c-.092-.198-.117-.417-.069-.627s.163-.404.334-.556c.171-.152.388-.255.625-.297s.482-.02.706.062c.223.082.414.221.548.4s.206.388.206.603c.001.143-.031.284-.092.417s-.151.252-.264.353c-.114.101-.248.182-.397.236s-.308.083-.468.083v-.004zM19.956 22.647h-.9v.93h-.469v-2.275h1.481v.38h-1.012v.588h.9v.378zm2.253-.156c0 .224-.04.42-.119.589a.893.893 0 0 1-.847.528c-.189 0-.357-.045-.505-.136s-.262-.22-.344-.387a1.344 1.344 0 0 1-.123-.581v-.112c0-.224.04-.421.12-.591a.895.895 0 0 1 .848-.529c.189 0 .358.046.505.137a.888.888 0 0 1 .342.392c.081.17.122.366.122.589v.102zm-.475-.103c0-.238-.043-.42-.128-.544s-.207-.186-.366-.186a.416.416 0 0 0-.364.184c-.085.122-.129.301-.13.538v.111c0 .232.043.412.128.541s.208.192.369.192a.415.415 0 0 0 .363-.184c.084-.124.127-.304.128-.541v-.111zm1.996.592a.237.237 0 0 0-.094-.203 1.203 1.203 0 0 0-.337-.15 2.418 2.418 0 0 1-.386-.156c-.258-.14-.387-.328-.387-.564 0-.123.034-.232.103-.328a.688.688 0 0 1 .298-.227c.13-.054.276-.081.438-.081.163 0 .307.03.434.089a.662.662 0 0 1 .401.614h-.469c0-.104-.033-.185-.098-.242s-.158-.087-.277-.087a.426.426 0 0 0-.267.073.225.225 0 0 0-.095.191c0 .074.037.136.111.186.075.05.185.097.33.141.267.08.461.18.583.298s.183.267.183.444a.55.55 0 0 1-.223.464c-.149.111-.349.167-.602.167-.175 0-.334-.032-.478-.095-.144-.065-.254-.153-.33-.264s-.113-.241-.113-.388h.47c0 .251.15.377.45.377a.442.442 0 0 0 .261-.067.222.222 0 0 0 .094-.191zm2.501-1.298h-.697v1.895h-.469v-1.895h-.687v-.38h1.853v.38zm1.638.909h-.9v.609h1.056v.377H26.5v-2.275h1.522v.38h-1.053v.542h.9v.367zm1.273.153h-.373v.833H28.3v-2.275h.845c.269 0 .476.06.622.18s.219.289.219.508a.697.697 0 0 1-.102.389.689.689 0 0 1-.305.247l.492.93v.022h-.503l-.427-.833zm-.373-.379h.378c.118 0 .209-.03.273-.089a.321.321 0 0 0 .097-.248.343.343 0 0 0-.092-.253c-.06-.061-.154-.092-.28-.092h-.377v.683zm2.84.41v.802h-.469v-2.275h.887c.171 0 .321.031.45.094a.703.703 0 0 1 .405.659.655.655 0 0 1-.23.528c-.152.128-.363.192-.633.192h-.411zm0-.379h.419c.124 0 .218-.029.283-.088.066-.058.098-.142.098-.25 0-.111-.033-.202-.098-.27s-.156-.104-.272-.106h-.43v.714zm2.966.195h-.9v.609h1.056v.377h-1.525v-2.275h1.522v.38h-1.053v.542h.9v.367zm2.175-.909h-.697v1.895h-.469v-1.895h-.688v-.38h1.853v.38zm1.637.909h-.9v.609h1.056v.377h-1.525v-2.275h1.522v.38h-1.053v.542h.9v.367zm1.274.153h-.373v.833h-.469v-2.275h.845c.269 0 .476.06.622.18s.219.289.219.508a.697.697 0 0 1-.102.389.689.689 0 0 1-.305.247l.492.93v.022h-.503l-.427-.833zm-.374-.379h.378c.118 0 .209-.03.273-.089a.321.321 0 0 0 .097-.248.343.343 0 0 0-.092-.253c-.06-.061-.154-.092-.28-.092h-.377v.683zm2.755.615a.237.237 0 0 0-.094-.203 1.203 1.203 0 0 0-.337-.15 2.418 2.418 0 0 1-.386-.156c-.258-.14-.388-.328-.388-.564 0-.123.034-.232.103-.328a.688.688 0 0 1 .298-.227c.13-.054.276-.081.438-.081.163 0 .307.03.434.089a.675.675 0 0 1 .295.248.646.646 0 0 1 .106.366h-.469c0-.104-.033-.185-.098-.242s-.158-.087-.277-.087a.426.426 0 0 0-.267.073.225.225 0 0 0-.095.191c0 .074.037.136.111.186.075.05.185.097.33.141.267.08.461.18.583.298s.183.267.183.444a.548.548 0 0 1-.223.464c-.149.111-.349.167-.602.167-.175 0-.334-.032-.478-.095a.773.773 0 0 1-.33-.264.678.678 0 0 1-.112-.388h.47c0 .251.15.377.45.377a.442.442 0 0 0 .261-.067.222.222 0 0 0 .094-.191z"/></symbol><symbol id="icon-Logo-1" viewBox="0 0 57 32"><path d="M14.27 23.859c.13.147.199.332.196.521.007.123-.017.247-.07.361s-.132.216-.233.297c-.252.175-.565.26-.881.24h-1.549v-3.302h1.517c.299-.018.596.059.84.219.098.075.176.17.227.277s.074.224.068.341a.725.725 0 0 1-.176.505.839.839 0 0 1-.462.258.897.897 0 0 1 .523.282zm-1.816-.499h.648a.653.653 0 0 0 .412-.11c.049-.04.087-.09.111-.146s.034-.116.028-.176c.005-.06-.005-.12-.029-.175s-.061-.106-.108-.147a.665.665 0 0 0-.425-.111h-.638v.866zm1.124 1.267c.052-.041.093-.093.12-.151s.038-.121.034-.184c.004-.064-.008-.127-.035-.186s-.069-.111-.121-.153a.714.714 0 0 0-.44-.119h-.68v.908h.689a.732.732 0 0 0 .435-.114zM17.371 25.278l-.844-1.291h-.317v1.291h-.726v-3.302h1.374c.346-.022.689.078.957.281.192.179.308.415.327.666s-.061.499-.224.7c-.17.178-.401.296-.655.336l.898 1.32h-.789zm-1.161-1.74h.594c.412 0 .618-.167.618-.5a.458.458 0 0 0-.151-.371.687.687 0 0 0-.467-.134h-.601l.007 1.005zM21.339 24.614h-1.446l-.255.665h-.761l1.328-3.265h.823l1.323 3.265h-.761l-.25-.665zm-.194-.5-.529-1.394-.529 1.394h1.057zM26.305 25.278h-.721l-1.616-2.245v2.245h-.719v-3.302h.719l1.616 2.258v-2.258h.721v3.302zM30.417 24.488a1.501 1.501 0 0 1-.652.582 2.282 2.282 0 0 1-1.013.208h-1.283v-3.302h1.283c.351-.008.698.061 1.013.203.276.127.503.328.652.576a1.78 1.78 0 0 1 0 1.732zm-.824-.079c.206-.219.319-.499.319-.788s-.113-.569-.319-.788a1.326 1.326 0 0 0-.902-.281h-.5v2.137h.5c.329.019.654-.082.902-.281zM21.79 3.609s9.301 3.215 9.103 7.867v7.869s-9.294-3.217-9.1-7.869l-.004-7.867zM39.179 17.503a13.494 13.494 0 0 1 5.909-1.994v-2.463c-2.444.862-4.517 2.426-5.909 4.457z"/><path d="M38.124 18.245c1.438-2.651 3.93-4.696 6.964-5.715V5.432s-13.245 4.58-12.965 11.205V27.84s.59-.205 1.519-.589c0-.358 0-.719.042-1.082.274-3.076 1.871-5.926 4.44-7.924z"/><path d="M36.864 22.407c.07-.777.225-1.546.463-2.294-1.599 1.725-2.568 3.866-2.77 6.122-.019.213-.03.426-.035.645a40.466 40.466 0 0 0 2.548-1.229 10.624 10.624 0 0 1-.206-3.244zM37.391 22.447a10.17 10.17 0 0 0 .164 2.938c3.619-1.983 7.685-5.046 7.528-8.748v-.323c-2.585.265-5.004 1.3-6.885 2.946a10.29 10.29 0 0 0-.807 3.188z"/></symbol><symbol id="icon-Logo" viewBox="0 0 57 32"><path d="M28.493 14.618a1.58 1.58 0 0 1-.323-1.061v-1.538c0-.471.107-.83.321-1.075s.581-.367 1.102-.366c.489 0 .836.104 1.042.313.224.266.333.592.308.92v.361h-.875v-.366c.003-.12-.005-.24-.025-.358a.352.352 0 0 0-.125-.213.505.505 0 0 0-.317-.083.533.533 0 0 0-.333.088.412.412 0 0 0-.145.235 1.74 1.74 0 0 0-.034.38v1.866c-.014.18.025.36.112.524.044.055.104.099.175.127s.149.038.226.029a.478.478 0 0 0 .31-.084.375.375 0 0 0 .13-.227c.02-.124.03-.249.027-.374v-.379h.875v.346c.025.342-.082.682-.303.967-.201.228-.544.343-1.047.343s-.884-.122-1.1-.375zM32.137 14.633c-.221-.239-.332-.588-.332-1.05v-1.617c0-.457.11-.802.332-1.037s.591-.351 1.109-.35c.515 0 .882.117 1.103.35.221.235.333.58.333 1.037v1.617c0 .457-.112.807-.337 1.048s-.591.361-1.1.361c-.509 0-.886-.122-1.109-.36zm1.517-.388a.906.906 0 0 0 .105-.479v-1.98a.88.88 0 0 0-.103-.469c-.044-.057-.106-.101-.179-.129s-.152-.037-.231-.027c-.079-.009-.159 0-.231.028s-.135.072-.18.129a.853.853 0 0 0-.105.469v1.99a.888.888 0 0 0 .105.479c.051.05.114.091.185.119a.612.612 0 0 0 .635-.119v-.009zM35.735 10.626h.942l.708 2.984.725-2.984h.917l.092 4.308h-.678l-.072-2.994-.699 2.994h-.544l-.725-3.005-.067 3.005h-.685l.085-4.308zM40.176 10.626h1.468c.846 0 1.268.408 1.268 1.223 0 .781-.445 1.171-1.335 1.17h-.5v1.915h-.906l.005-4.308zm1.254 1.841a.7.7 0 0 0 .498-.136.693.693 0 0 0 .13-.486 1.327 1.327 0 0 0-.044-.391c-.013-.043-.036-.083-.067-.118s-.07-.065-.114-.087a.94.94 0 0 0-.404-.069h-.352v1.287h.352zM44.218 10.626h.973l.998 4.308h-.844l-.197-.993h-.868l-.203.993h-.857l.998-4.308zm.832 2.815-.339-1.808-.339 1.808h.678zM46.996 10.626h.634l1.214 2.457v-2.457h.752v4.308h-.603l-1.221-2.565v2.565h-.777l.002-4.308zM51.357 13.291l-1.009-2.659h.85l.616 1.708.578-1.708h.832l-.997 2.659v1.642h-.87v-1.642zM29.892 16.817v.225h-.739v1.75h-.31v-1.75H28.1v-.225h1.792zM32.209 18.793h-.239a.105.105 0 0 1-.067-.019.102.102 0 0 1-.04-.045l-.214-.469h-1.026l-.214.469a.119.119 0 0 1-.033.053.112.112 0 0 1-.067.019h-.239l.906-1.976h.315l.917 1.968zm-1.5-.734h.855l-.362-.804a1.426 1.426 0 0 1-.067-.186 4.03 4.03 0 0 0-.034.105l-.033.083-.359.802zM33.771 18.599a1.018 1.018 0 0 0 .315-.023.961.961 0 0 0 .13-.036c.04-.014.08-.031.121-.048v-.444h-.362c-.009 0-.018-.001-.026-.003s-.016-.007-.023-.012c-.006-.004-.011-.01-.014-.016s-.005-.013-.004-.02v-.152h.703v.757a1.407 1.407 0 0 1-.609.202 2.591 2.591 0 0 1-.264.012 1.41 1.41 0 0 1-.457-.073 1.104 1.104 0 0 1-.362-.206.956.956 0 0 1-.234-.313.99.99 0 0 1-.083-.41.907.907 0 0 1 .316-.726c.103-.089.227-.159.362-.205.155-.05.32-.075.486-.074.084 0 .169.006.252.017a1.21 1.21 0 0 1 .397.128c.056.031.108.065.158.103l-.087.122c-.007.011-.017.021-.029.027s-.027.01-.041.01a.118.118 0 0 1-.056-.016 1.344 1.344 0 0 1-.089-.047.727.727 0 0 0-.121-.053 1.171 1.171 0 0 0-.167-.044 1.362 1.362 0 0 0-.23-.017 1.06 1.06 0 0 0-.35.055.704.704 0 0 0-.435.402.924.924 0 0 0 0 .659.756.756 0 0 0 .446.405c.115.034.237.047.359.039zM36.659 18.567h.989v.225h-1.292v-1.976h.31l-.007 1.75zM38.678 18.792h-.31v-1.976h.31v1.976zM39.83 16.826a.151.151 0 0 1 .047.036l1.324 1.489a.41.41 0 0 1 0-.07v-1.472h.27v1.984h-.156a.14.14 0 0 1-.067-.011.184.184 0 0 1-.049-.038l-1.323-1.488v1.536h-.259v-1.976h.161c.017 0 .035.003.051.009zM43.753 16.817v.217h-1.098v.652h.89v.21h-.89v.674h1.098v.217h-1.417v-1.971h1.417zM11.286 4.616l13.757 3.372v11.818l-13.757-3.371V4.616zm-.882-1.007V17.01l15.52 3.806V7.417L10.404 3.61z"/><path d="M18.722 27.036 3.2 23.227V9.828l15.522 3.807v13.401z"/><path d="m10.661 4.465 13.578 3.33-5.774 4.987L4.885 9.45l5.776-4.985zm-.257-.856L3.2 9.828l15.522 3.807 7.202-6.219-15.52-3.807zM19.595 26.282l6.329-5.465-6.329-1.553v7.018z"/></symbol><symbol id="icon-Social-links" viewBox="0 0 150 32"><path fill="#fff" style="fill:var(--color1, #fff)" d="M149.818 16c0 4.418-1.791 8.418-4.687 11.314S138.236 32 133.818 32s-8.418-1.791-11.313-4.686c-2.896-2.895-4.687-6.895-4.687-11.314s1.791-8.418 4.687-11.314C125.4 1.791 129.4 0 133.818 0s8.418 1.791 11.313 4.686A15.947 15.947 0 0 1 149.818 16z"/><path fill="#afb1b8" style="fill:var(--color2, #afb1b8)" d="M141.087 23.273v-.001h.004v-5.335c0-2.61-.561-4.62-3.613-4.62-1.466 0-2.451.805-2.852 1.568h-.042v-1.324h-2.893v9.711h3.012v-4.809c0-1.266.24-2.49 1.808-2.49 1.545 0 1.567 1.445 1.567 2.572v4.728h3.009zM126.785 13.562h3.016v9.711h-3.016v-9.711zM128.292 8.727c-.964 0-1.747.782-1.747 1.747s.783 1.763 1.747 1.763c.964 0 1.746-.799 1.746-1.763s-.783-1.747-1.746-1.747z"/><path fill="#fff" style="fill:var(--color1, #fff)" d="M110.545 16c0 4.418-1.791 8.418-4.687 11.314S98.963 32 94.545 32s-8.418-1.791-11.313-4.686c-2.896-2.895-4.687-6.895-4.687-11.314s1.791-8.418 4.687-11.314C86.127 1.791 90.127 0 94.545 0s8.418 1.791 11.313 4.686A15.947 15.947 0 0 1 110.545 16z"/><path fill="#afb1b8" style="fill:var(--color2, #afb1b8)" d="M96.968 11.142h1.328V8.829a17.317 17.317 0 0 0-1.935-.102c-1.915 0-3.226 1.204-3.226 3.418v2.037h-2.113v2.585h2.113v6.505h2.59v-6.505h2.028l.321-2.585h-2.349v-1.781c0-.747.201-1.259 1.243-1.259z"/><path fill="#fff" style="fill:var(--color1, #fff)" d="M71.273 16c0 4.418-1.791 8.418-4.686 11.314S59.692 32 55.273 32s-8.418-1.791-11.314-4.686c-2.895-2.895-4.686-6.895-4.686-11.314s1.791-8.418 4.686-11.314C46.854 1.791 50.854 0 55.273 0s8.418 1.791 11.314 4.686A15.95 15.95 0 0 1 71.273 16z"/><path fill="#afb1b8" style="fill:var(--color2, #afb1b8)" d="M62.545 11.49a6.248 6.248 0 0 1-1.718.471 2.967 2.967 0 0 0 1.312-1.648 5.963 5.963 0 0 1-1.891.722 2.981 2.981 0 0 0-5.158 2.039c0 .236.02.464.069.68a8.439 8.439 0 0 1-6.146-3.119 2.985 2.985 0 0 0 .917 3.985 2.943 2.943 0 0 1-1.347-.367v.033a2.996 2.996 0 0 0 2.389 2.93 2.992 2.992 0 0 1-.782.098 2.64 2.64 0 0 1-.565-.051 3.01 3.01 0 0 0 2.786 2.077 5.991 5.991 0 0 1-3.697 1.272 5.59 5.59 0 0 1-.714-.041 8.393 8.393 0 0 0 4.575 1.338c5.487 0 8.487-4.545 8.487-8.485 0-.132-.005-.259-.011-.385a5.95 5.95 0 0 0 1.495-1.548z"/><path fill="#fff" style="fill:var(--color1, #fff)" d="M32 16c0 4.418-1.791 8.418-4.686 11.314S20.419 32 16 32s-8.418-1.791-11.314-4.686C1.791 24.419 0 20.419 0 16S1.791 7.582 4.686 4.686 11.581 0 16 0c4.418 0 8.418 1.791 11.314 4.686S32 11.581 32 16z"/><path fill="#afb1b8" style="fill:var(--color2, #afb1b8)" d="M23.258 13.004c-.034-.773-.159-1.304-.338-1.765a3.557 3.557 0 0 0-.841-1.29 3.589 3.589 0 0 0-1.287-.838c-.463-.179-.992-.304-1.764-.338-.779-.037-1.026-.046-3.001-.046s-2.222.009-2.998.043c-.773.034-1.304.159-1.764.338a3.557 3.557 0 0 0-1.29.841 3.589 3.589 0 0 0-.838 1.287c-.179.463-.304.992-.338 1.764-.037.779-.045 1.026-.045 3.001s.008 2.222.043 2.998c.034.773.159 1.304.338 1.765.185.489.472.926.841 1.29.364.369.804.656 1.287.838.463.179.992.304 1.765.338.776.034 1.023.043 2.998.043s2.222-.008 2.998-.043c.773-.034 1.304-.159 1.764-.338a3.72 3.72 0 0 0 2.128-2.128c.179-.463.304-.992.338-1.765.034-.776.043-1.023.043-2.998s-.003-2.222-.037-2.998zm-1.309 5.938c-.031.71-.151 1.094-.25 1.35a2.409 2.409 0 0 1-1.381 1.381c-.256.099-.642.219-1.35.25-.767.034-.997.043-2.938.043s-2.174-.008-2.938-.043c-.71-.031-1.094-.15-1.35-.25a2.228 2.228 0 0 1-.835-.543 2.264 2.264 0 0 1-.543-.835c-.099-.256-.219-.642-.25-1.35-.034-.767-.043-.997-.043-2.938s.008-2.174.043-2.938c.031-.71.151-1.094.25-1.35.117-.315.301-.602.546-.835.236-.242.52-.426.835-.543.256-.099.642-.219 1.35-.25.767-.034.997-.043 2.938-.043 1.944 0 2.174.008 2.938.043.71.031 1.094.151 1.35.25.315.116.602.301.835.543.241.236.426.52.543.835.099.256.219.642.25 1.35.034.767.043.997.043 2.938s-.009 2.168-.043 2.935z"/><path fill="#afb1b8" style="fill:var(--color2, #afb1b8)" d="M16.027 12.265a3.737 3.737 0 0 0 0 7.472 3.737 3.737 0 0 0 0-7.472zm0 6.16a2.424 2.424 0 1 1 0-4.849 2.424 2.424 0 0 1 0 4.849zM20.784 12.117a.872.872 0 1 1-1.744 0 .872.872 0 0 1 1.744 0z"/></symbol><symbol id="icon-Vector-4" viewBox="0 0 30 32"><path d="m29.859 22.098-8.443-8.505.937-4.615c.242.094.499.144.758.146h.006a2.159 2.159 0 1 0-2.008-1.435l-4.96.605L8.058.161a.534.534 0 0 0-.377-.16.532.532 0 0 0-.373.155L5.795 1.66a.534.534 0 0 0 0 .754l.814.826a14.943 14.943 0 0 0 2.519 17.663.513.513 0 0 0 .146.098c-.034.18-.051.364-.052.547v6.187h-6.4a2.67 2.67 0 0 0-2.667 2.667v1.067c0 .295.239.533.533.533h24.533a.533.533 0 0 0 .533-.533v-1.067a2.67 2.67 0 0 0-2.667-2.667h-6.4v-2.742a15.09 15.09 0 0 0 3.049.32 14.854 14.854 0 0 0 7.04-1.783l.818.823a.534.534 0 0 0 .377.16.532.532 0 0 0 .373-.155l1.513-1.504a.534.534 0 0 0 0-.754zM22.366 6.233a1.066 1.066 0 1 1 .752 1.822h-.003a1.067 1.067 0 0 1-.747-1.823h-.002zM21.11 9.738l-.598 2.946-1.175-1.182 1.774-1.763zm-.606-.902-1.92 1.909-1.485-1.493 3.405-.415zM23.09 28.8a1.6 1.6 0 0 1 1.6 1.6v.533H1.223V30.4a1.6 1.6 0 0 1 1.6-1.6H23.09zm-7.467-2.133v1.067H10.29v-1.067h5.333zM10.29 25.6v-4.053c0-1.294 1.196-2.347 2.667-2.347s2.667 1.053 2.667 2.347V25.6h-5.333zm6.4-1.696v-2.357c0-1.882-1.675-3.413-3.733-3.413a3.8 3.8 0 0 0-3.281 1.786A13.87 13.87 0 0 1 7.397 4.033l18.602 18.708a13.818 13.818 0 0 1-9.309 1.163zm11.289-.684L6.922 2.039l.755-.752 7.935 7.98c.004 0 .006.007.01.01l13.115 13.191-.757.752z"/></symbol><symbol id="icon-Vector-3" viewBox="0 0 29 32"><path d="M28.361 13.626a2.04 2.04 0 0 0-1.364-.809 2.04 2.04 0 0 0-1.537.404l-1.437 1.102-2.178 1.626-1.558-.621c2.779-1.247 4.721-4.026 4.721-7.253 0-4.387-3.583-7.956-7.988-7.956S9.032 3.688 9.032 8.075c0 1.59.476 3.069 1.285 4.313l-3.172-.028H7.14c-.01 0-.018.005-.027.005a.576.576 0 0 0-.178.036c-.015.005-.03.009-.044.015l-.022.007-3.71 1.832-.001.001-2.173 1.045a.432.432 0 0 0-.072.04 2.043 2.043 0 0 0 .525 3.654 2.038 2.038 0 0 0 1.582-.147l1.593-.847 2.598-1.342 1.557-.009-6.245 6.215-.002.001-1.536 1.53c-.363.361-.562.84-.562 1.351s.2.991.562 1.353c.373.371.863.557 1.353.557s.98-.186 1.354-.557L5.2 25.598l1.998-1.491 1.034 1.029-2.022 2.013-.002.001-1.536 1.53c-.363.361-.562.84-.562 1.351s.2.991.562 1.353c.373.371.864.557 1.354.557s.981-.186 1.354-.557l3.995-3.978.001-.002 1.159-1.148-.004-.004c.007-.007.018-.01.025-.018l5.928-6.493 3.983.567a.611.611 0 0 0 .301-.038c.02-.007.038-.017.057-.027.022-.011.045-.017.066-.031l3.687-2.448c.013-.009.021-.024.034-.034.015-.012.033-.017.046-.029l1.459-1.367a2.041 2.041 0 0 0 .243-2.71zM2.445 17.769a.814.814 0 0 1-.641.059.819.819 0 0 1-.244-1.446l1.507-.725.515 1.506-1.138.605zm4.013-2.097-1.777.918-.504-1.473 2.326-1.148-.045 1.703zm17.327-7.598a6.661 6.661 0 0 1-.687 2.937L18.3 8.832a2.136 2.136 0 0 0-.905-1.593l1.68-5.577c2.728.868 4.71 3.413 4.71 6.412zm-13.528 0c0-3.712 3.034-6.732 6.764-6.732.29 0 .574.024.855.06l-1.643 5.455c-.022-.001-.043-.007-.066-.007-1.185 0-2.149.961-2.149 2.142s.964 2.142 2.149 2.142c.797 0 1.485-.44 1.857-1.084l4.432 2.014a6.76 6.76 0 0 1-5.436 2.742c-3.73 0-6.764-3.02-6.764-6.732zm6.835.918c0 .506-.415.918-.925.918s-.925-.412-.925-.918.415-.918.925-.918.925.412.925.918zM2.829 26.233a.698.698 0 0 1-.98.001.682.682 0 0 1 0-.968l1.104-1.1.977.973-1.1 1.096zm3.688 4.285a.698.698 0 0 1-.981.001.682.682 0 0 1 0-.968l1.105-1.1.977.973-1.101 1.096zm3.995-3.981-.002.001-2.025 2.02-.977-.973 2.023-2.014v-.001l.002-.001a.598.598 0 0 0 .103-.155c.008-.016.023-.029.03-.046.019-.047.022-.098.029-.148.004-.028.016-.054.016-.083 0-.041-.015-.081-.023-.121-.007-.037-.007-.074-.021-.11a.596.596 0 0 0-.105-.158c-.012-.013-.016-.031-.029-.044h-.001l-.001-.002-1.844-1.836c-.02-.02-.045-.028-.067-.044a.596.596 0 0 0-.1-.066.522.522 0 0 0-.107-.037.587.587 0 0 0-.118-.023.585.585 0 0 0-.11.006.596.596 0 0 0-.119.023.533.533 0 0 0-.108.051c-.023.013-.048.017-.07.033l-2.035 1.519-1.034-1.029 2.753-2.738 5.004 4.921-1.064 1.055zm7.825-8.052c-.018-.002-.034.004-.052.003a.65.65 0 0 0-.233.032.646.646 0 0 0-.206.124c-.015.013-.032.019-.046.034l-5.391 5.905-4.967-4.885 3.251-3.234a.613.613 0 0 0-.436-1.045v-.001l-2.546.015.032-1.845 3.562.031a7.973 7.973 0 0 0 5.716 2.411c.502 0 .991-.052 1.468-.141.046.037.091.074.149.097l2.765 1.102.175.87.204 1.016-3.446-.49zm4.637.205-.359-1.788 1.66-1.239 1.086 1.442-2.387 1.585zm4.308-3.249-.962.901-1.069-1.419.954-.731a.84.84 0 0 1 .623-.164.82.82 0 0 1 .453 1.413z"/></symbol><symbol id="icon-Vector-2" viewBox="0 0 31 32"><path d="M30.84 15.301C30.838 6.849 23.985-.002 15.532 0S.229 6.855.231 15.308A15.304 15.304 0 0 0 10.88 29.884a.662.662 0 0 0 .529-.065.637.637 0 0 0 .283-.356l3.865-12.25a1.912 1.912 0 1 0-.84-3.635L9.611 8.471a.637.637 0 0 0-.902.902l5.103 5.109a1.876 1.876 0 0 0 .536 2.309l-3.683 11.673C3.387 25.783-.339 17.71 2.342 10.432S13.096-.572 20.374 2.109s11.004 10.754 8.323 18.032a14.042 14.042 0 0 1-7.462 7.973l-.398-1.874a.638.638 0 0 0-1.048-.344l-3.837 3.426a.637.637 0 0 0 .231 1.084l4.899 1.563a.638.638 0 0 0 .819-.74l-.391-1.839a15.255 15.255 0 0 0 9.329-14.089zm-15.305-.637a.638.638 0 1 1 0 1.277.638.638 0 0 1 0-1.277zm2.1 14.864 2.184-1.948.603 2.84-2.787-.892z"/></symbol><symbol id="icon-Vector-1" viewBox="0 0 41 32"><path d="M2.073 31.933h33.168a2.073 2.073 0 0 0 2.073-2.073v-2.764a2.073 2.073 0 0 0-2.073-2.073h-.691V7.791l3.925-3.718A2.086 2.086 0 0 0 40.887.746a2.086 2.086 0 0 0-3.38 2.339L34.55 5.888V4.294a2.073 2.073 0 0 0-2.073-2.073H4.837a2.073 2.073 0 0 0-2.073 2.073v20.73h-.691A2.073 2.073 0 0 0 0 27.097v2.764c0 1.145.928 2.073 2.073 2.073zM39.387 1.529a.69.69 0 1 1 0 1.381.69.69 0 0 1 0-1.381zM4.146 4.293a.69.69 0 0 1 .691-.691h27.64a.69.69 0 0 1 .691.691v2.902l-1.382 1.313V5.675a.69.69 0 0 0-.691-.691H6.219a.69.69 0 0 0-.691.691V22.95a.69.69 0 0 0 .691.691h24.876a.69.69 0 0 0 .691-.691V10.409L33.168 9.1v15.923H4.146V4.293zm6.219 8.983a2.071 2.071 0 0 0-1.064 3.855 2.072 2.072 0 0 0 2.499-.293l2.402 1.205a.69.69 0 0 0 .825-.159l5.106-5.744 5.019 3.761a.69.69 0 0 0 .889-.051l4.362-4.132v10.54H6.909V6.365h23.494v3.449l-4.889 4.63-5.061-3.794a.692.692 0 0 0-.931.093l-5.176 5.824-1.935-.968c.014-.083.023-.167.026-.251a2.073 2.073 0 0 0-2.073-2.073zm.691 2.073a.69.69 0 1 1-1.381 0 .69.69 0 0 1 1.381 0zm4.146 11.056h6.91v.691a.69.69 0 0 1-.691.691h-5.528a.69.69 0 0 1-.691-.691v-.691zm-13.82.691a.69.69 0 0 1 .691-.691H13.82v.691c0 1.145.928 2.073 2.073 2.073h5.528a2.073 2.073 0 0 0 2.073-2.073v-.691h11.747a.69.69 0 0 1 .691.691v2.764a.69.69 0 0 1-.691.691H2.073a.69.69 0 0 1-.691-.691v-2.764z"/></symbol><symbol id="icon-Vector" viewBox="0 0 20 32"><path d="M17 0H3C1.346 0 0 1.346 0 3v26c0 1.654 1.346 3 3 3h14c1.654 0 3-1.346 3-3V3c0-1.654-1.346-3-3-3zM3 2h14a1 1 0 0 1 1 1v21H2V3a1 1 0 0 1 1-1zm14 28H3a1 1 0 0 1-1-1v-3h16v3a1 1 0 0 1-1 1z"/></symbol><symbol id="icon-envelope" viewBox="0 0 43 32"><path d="M38.667 0H4C1.794 0 0 1.794 0 4v24c0 2.206 1.794 4 4 4h34.667c2.206 0 4-1.794 4-4V4c0-2.206-1.794-4-4-4zm0 2.667c.181 0 .353.038.511.103L21.334 18.236 3.49 2.77a1.32 1.32 0 0 1 .511-.103h34.667zm0 26.666H4A1.334 1.334 0 0 1 2.667 28V5.587L20.46 21.008a1.335 1.335 0 0 0 1.748 0L40.001 5.587V28c0 .736-.598 1.333-1.333 1.333z"/></symbol></defs></svg>